<svg width="20" height="20" viewBox="0 0 20 20" fill="none" xmlns="http://www.w3.org/2000/svg">
<path d="M10.0018 0.75L10.0018 13.105M10.0018 17.466V19.25M10.0018 17.466C9.42367 17.466 8.86918 17.2363 8.46035 16.8275C8.05152 16.4187 7.82184 15.8642 7.82184 15.286C7.82184 14.7078 8.05152 14.1533 8.46035 13.7445C8.86918 13.3357 9.42367 13.106 10.0018 13.106C10.58 13.106 11.1345 13.3357 11.5433 13.7445C11.9522 14.1533 12.1818 14.7078 12.1818 15.286C12.1818 15.8642 11.9522 16.4187 11.5433 16.8275C11.1345 17.2363 10.58 17.466 10.0018 17.466ZM16.6088 0.75V6.498M16.6088 6.498C17.1871 6.498 17.7423 6.72823 18.1512 7.13715C18.5601 7.54608 18.7898 8.1007 18.7898 8.679C18.7898 9.25717 18.5592 9.81166 18.1503 10.2205C17.7415 10.6293 17.187 10.859 16.6088 10.859M16.6088 6.498C16.0305 6.498 15.4764 6.72823 15.0675 7.13715C14.6586 7.54608 14.4288 8.1007 14.4288 8.679C14.4288 9.25717 14.6585 9.81166 15.0674 10.2205C15.4762 10.6293 16.0307 10.859 16.6088 10.859M16.6088 10.859V19.25M3.39484 0.75L3.39484 3.855M3.39484 8.216L3.39484 19.25M3.39484 8.216C2.81667 8.216 2.26218 7.98632 1.85335 7.57749C1.44452 7.16866 1.21484 6.61417 1.21484 6.036C1.21484 5.74972 1.27123 5.46624 1.38079 5.20175C1.49034 4.93726 1.65092 4.69694 1.85335 4.49451C2.05578 4.29208 2.2961 4.1315 2.56059 4.02194C2.82508 3.91239 3.10856 3.856 3.39484 3.856C3.68113 3.856 3.9646 3.91239 4.22909 4.02194C4.49358 4.1315 4.7339 4.29208 4.93634 4.49451C5.13877 4.69694 5.29935 4.93726 5.4089 5.20175C5.51846 5.46624 5.57484 5.74972 5.57484 6.036C5.57484 6.61417 5.34517 7.16866 4.93634 7.57749C4.52751 7.98632 3.97302 8.216 3.39484 8.216Z" stroke="white" stroke-width="1.5" stroke-miterlimit="10" stroke-linecap="round"/>
</svg>
